<?xml version="1.0" encoding="UTF-8"?>
<svg width="60px" height="24px" viewBox="0 0 60 24" version="1.1" xmlns="http://www.w3.org/2000/svg">
    <title>Nike Logo</title>
    <g stroke="none" stroke-width="1" fill="none" fill-rule="evenodd">
        <path d="M24.4892,0 L7.0482,0 C3.1472,0 0,3.1472 0,7.0482 L0,16.9518 C0,20.8528 3.1472,24 7.0482,24 L24.4892,24 C28.3902,24 31.5374,20.8528 31.5374,16.9518 L31.5374,7.0482 C31.5374,3.1472 28.3902,0 24.4892,0" fill="#111111"/>
        <path d="M60,7.0482 L60,16.9518 C60,20.8528 56.8528,24 52.9518,24 L35.5108,24 C31.6098,24 28.4626,20.8528 28.4626,16.9518 L28.4626,7.0482 C28.4626,3.1472 31.6098,0 35.5108,0 L52.9518,0 C56.8528,0 60,3.1472 60,7.0482" fill="#111111"/>
        <path d="M31.5374,12 C31.5374,18.6274 26.1648,24 19.5374,24 C12.91,24 7.5374,18.6274 7.5374,12 C7.5374,5.3726 12.91,0 19.5374,0 C26.1648,0 31.5374,5.3726 31.5374,12" fill="#111111"/>
    </g>
</svg> 